<svg width="30.000000" height="20.000000" viewBox="0 0 30 20" fill="none" xmlns="http://www.w3.org/2000/svg" xmlns:xlink="http://www.w3.org/1999/xlink">
	<desc>
			Created with Pixso.
	</desc>
	<defs/>
	<path id="Vector" d="M0 18.88C0 18.59 0.14 18.31 0.39 18.1C0.65 17.89 1 17.77 1.36 17.77L28.63 17.77C28.99 17.77 29.34 17.89 29.6 18.1C29.85 18.31 30 18.59 30 18.88C30 19.18 29.85 19.46 29.6 19.67C29.34 19.88 28.99 20 28.63 20L1.36 20C1 20 0.65 19.88 0.39 19.67C0.14 19.46 0 19.18 0 18.88ZM0 10C0 9.7 0.14 9.42 0.39 9.21C0.65 9 1 8.88 1.36 8.88L28.63 8.88C28.99 8.88 29.34 9 29.6 9.21C29.85 9.42 30 9.7 30 10C30 10.29 29.85 10.57 29.6 10.78C29.34 10.99 28.99 11.11 28.63 11.11L1.36 11.11C1 11.11 0.65 10.99 0.39 10.78C0.14 10.57 0 10.29 0 10ZM0 1.11C0 0.81 0.14 0.53 0.39 0.32C0.65 0.11 1 0 1.36 0L28.63 0C28.99 0 29.34 0.11 29.6 0.32C29.85 0.53 30 0.81 30 1.11C30 1.4 29.85 1.68 29.6 1.89C29.34 2.1 28.99 2.22 28.63 2.22L1.36 2.22C1 2.22 0.65 2.1 0.39 1.89C0.14 1.68 0 1.4 0 1.11Z" fill="#000000" fill-opacity="1.000000" fill-rule="evenodd"/>
</svg>
