<svg width="16.000061" height="15.058655" viewBox="0 0 16.0001 15.0587" fill="none" xmlns="http://www.w3.org/2000/svg" xmlns:xlink="http://www.w3.org/1999/xlink">
	<desc>
			Created with Pixso.
	</desc>
	<defs/>
	<g opacity="0.400000">
		<path id="Vector" d="M15.52 8.47L8.54 8.47L13.19 13.11C13.36 13.29 13.66 13.31 13.84 13.13C14.98 12.06 15.76 10.62 15.99 8.99C16.03 8.71 15.8 8.47 15.52 8.47ZM15.05 6.56C14.81 3.05 12 0.24 8.49 0C8.22 -0.02 8 0.2 8 0.47L8 7.05L14.58 7.05C14.85 7.05 15.07 6.83 15.05 6.56ZM6.58 8.47L6.58 1.49C6.58 1.21 6.34 0.97 6.06 1.01C2.55 1.51 -0.13 4.57 0 8.24C0.13 12.01 3.37 15.1 7.14 15.05C8.63 15.03 10 14.56 11.12 13.76C11.35 13.59 11.37 13.25 11.17 13.05L6.58 8.47Z" fill="#9FA2B4" fill-opacity="1.000000" fill-rule="nonzero"/>
	</g>
</svg>
